<svg width="24" height="24" viewBox="0 0 24 24" fill="none" xmlns="http://www.w3.org/2000/svg">
<path fill-rule="evenodd" clip-rule="evenodd" d="M20.25 19.5H16.6031V14.2267C16.6031 12.8467 16.0331 11.9044 14.7784 11.9044C13.8191 11.9044 13.2855 12.5404 13.0372 13.1531C12.9439 13.3729 12.9585 13.6793 12.9585 13.9856V19.5H9.34575C9.34575 19.5 9.39225 10.1591 9.34575 9.31012H12.9585V10.9095C13.1723 10.2101 14.3265 9.21225 16.1685 9.21225C18.4541 9.21225 20.25 10.6777 20.25 13.8341V19.5ZM5.6925 8.0355H5.66888C4.50488 8.0355 3.75 7.25662 3.75 6.26925C3.75 5.26275 4.52701 4.5 5.71463 4.5C6.90113 4.5 7.63087 5.26087 7.65374 6.26625C7.65374 7.25362 6.90112 8.0355 5.6925 8.0355ZM4.16624 9.31012H7.38224V19.5H4.16624V9.31012Z" fill="#A81D1D"/>
</svg>
