<svg width="24" height="24" viewBox="0 0 24 24" fill="none" xmlns="http://www.w3.org/2000/svg">
<path fill-rule="evenodd" clip-rule="evenodd" d="M18.3009 7.3871C19.0091 6.96402 19.5386 6.29406 19.7889 5.50418C19.126 5.90006 18.4008 6.17888 17.6445 6.32857C16.6954 5.30751 15.2228 4.97447 13.9312 5.48878C12.6396 6.00308 11.7916 7.26017 11.7928 8.65869C11.7902 8.91948 11.8165 9.17975 11.8712 9.43466C9.14944 9.30031 6.61352 8.00457 4.89877 5.8721C3.99524 7.42738 4.45038 9.42212 5.93748 10.4244C5.40226 10.4098 4.87835 10.2659 4.40991 10.0048V10.0419C4.41173 11.6632 5.54329 13.0607 7.1201 13.3889C6.8307 13.4657 6.53245 13.5035 6.23318 13.5011C6.01828 13.5049 5.8036 13.4854 5.59286 13.4429C6.04088 14.8282 7.30729 15.7788 8.75371 15.8155C7.55636 16.7584 6.0797 17.2699 4.55969 17.2683C4.28907 17.2701 4.01862 17.2544 3.75 17.2214C5.29674 18.225 7.09912 18.7559 8.93917 18.7499C15.1637 18.7499 18.567 13.5581 18.567 9.05781C18.567 8.90717 18.5618 8.76193 18.5546 8.61753C19.2218 8.13675 19.7963 7.53749 20.25 6.84915C19.6293 7.12175 18.9729 7.30292 18.3009 7.3871Z" fill="#A81D1D"/>
</svg>
